/* XPM */
static char *mined[] = {
/* columns rows colors chars-per-pixel */
"32 32 215 2",
"   c #00004C",
".  c #00024C",
"X  c #00064F",
"o  c #000250",
"O  c #00075C",
"+  c #000A53",
"@  c #000954",
"#  c #000A54",
"$  c #000B54",
"%  c #000D54",
"&  c #000D55",
"*  c #000C56",
"=  c #000E55",
"-  c #000E56",
";  c #000E57",
":  c #000E59",
">  c #000F5A",
",  c #000F5F",
"<  c #001058",
"1  c #001158",
"2  c #001159",
"3  c #00115B",
"4  c #001259",
"5  c #001359",
"6  c #00125A",
"7  c #00105F",
"8  c #00125C",
"9  c #00135C",
"0  c #00145A",
"q  c #00155A",
"w  c #001759",
"e  c #00175A",
"r  c #00145D",
"t  c #00155D",
"y  c #00165D",
"u  c #00165F",
"i  c #00175E",
"p  c #011956",
"a  c #00185D",
"s  c #00195D",
"d  c #00185E",
"f  c #001A5D",
"g  c #03195D",
"h  c #001C5E",
"j  c #001E5F",
"k  c #081856",
"l  c #0D1D58",
"z  c #000F60",
"x  c #001766",
"c  c #001769",
"v  c #001D60",
"b  c #001D61",
"n  c #001F60",
"m  c #001F61",
"M  c #001F62",
"N  c #001A68",
"B  c #001B6A",
"V  c #002061",
"C  c #002069",
"Z  c #002B7B",
"A  c #00307D",
"S  c #03367C",
"D  c #220A52",
"F  c #311A5C",
"G  c #341C5E",
"H  c #202F63",
"J  c #3A2363",
"K  c #3C3264",
"L  c #403F67",
"P  c #4B4D79",
"I  c #795672",
"U  c #7F5F73",
"Y  c #7C5E75",
"T  c #6C637D",
"R  c #003B84",
"E  c #013F88",
"W  c #083C80",
"Q  c #08438B",
"!  c #2B4984",
"~  c #235797",
"^  c #235A9D",
"/  c #39649D",
"(  c #2262A7",
")  c #2D6FB0",
"_  c #336DAC",
"`  c #346EAC",
"'  c #3C73B0",
"]  c #435889",
"[  c #485885",
"{  c #4B6698",
"}  c #5D8BB4",
"|  c #638ABF",
" . c #7295BD",
".. c #6B98C7",
"X. c #7A97C3",
"o. c #815C6B",
"O. c #8B6775",
"+. c #8E6976",
"@. c #847388",
"#. c #A37482",
"$. c #9C8396",
"%. c #9697B1",
"&. c #9799B3",
"*. c #929EBB",
"=. c #999AB3",
"-. c #9E98B0",
";. c #A2878F",
":. c #B7A9B6",
">. c #93B3D1",
",. c #95B5D5",
"<. c #98B7D3",
"1. c #A1BBD5",
"2. c #A6BDD5",
"3. c #ABBCD6",
"4. c #ADC5DB",
"5. c #C6A0A7",
"6. c #CCA6B0",
"7. c #D9A9A1",
"8. c #E3B9AD",
"9. c #E2BCAD",
"0. c #E4C0B2",
"q. c #E4C1B3",
"w. c #E9C5BC",
"e. c #EDC7BF",
"r. c #C2C9DB",
"t. c #DED0D7",
"y. c #DFD1D7",
"u. c #DED1D8",
"i. c #DED2D9",
"p. c #DFD2D8",
"a. c #C0D5E6",
"s. c #D6D6E2",
"d. c #D8DCE6",
"f. c #E8CBC7",
"g. c #E1D1D7",
"h. c #E1D4DA",
"j. c #E5D4D8",
"k. c #E6D8DC",
"l. c #E7D8DC",
"z. c #E7D8DD",
"x. c #E7D8DE",
"c. c #E8D8DB",
"v. c #E8D8DC",
"b. c #E8D9DC",
"n. c #E8D9DD",
"m. c #E9D9DC",
"M. c #E9DADC",
"N. c #E9DADD",
"B. c #E8DADE",
"V. c #EAD8DC",
"C. c #EADADD",
"Z. c #EBDADC",
"A. c #EADADE",
"S. c #EDDADC",
"D. c #EDDBDD",
"F. c #EEDBDC",
"G. c #F6DAD4",
"H. c #F0DDDE",
"J. c #F2DEDE",
"K. c #F4DEDE",
"L. c #F4DFDE",
"P. c #F5DFDE",
"I. c #E2DBE3",
"U. c #E4DCE3",
"Y. c #E9DCE0",
"T. c #E9DCE1",
"R. c #EADDE2",
"E. c #EBDFE3",
"W. c #EDDFE2",
"Q. c #EEDEE0",
"!. c #F5E0DF",
"~. c #FFE5D6",
"^. c #FFE1DA",
"/. c #F9EAD5",
"(. c #FBEDD4",
"). c #FBEDD6",
"_. c #EAE3E9",
"`. c #EEE4E9",
"'. c #EFE5E8",
"]. c #F0E0E1",
"[. c #F1E0E1",
"{. c #F0E1E3",
"}. c #F2E1E2",
"|. c #F3E3E0",
" X c #F1E6E6",
".X c #F3E5E7",
"XX c #F6E2E0",
"oX c #F6E3E2",
"OX c #F4E4E2",
"+X c #F7E5E1",
"@X c #F5E6E7",
"#X c #F2E5E9",
"$X c #F3E5E8",
"%X c #F5E9E3",
"&X c #F7E8E4",
"*X c #F7E8E6",
"=X c #F8E3E1",
"-X c #F8E7E2",
";X c #FAE4E1",
":X c #FBE4E2",
">X c #FAE6E3",
",X c #F9E6E5",
"<X c #F9E7E6",
"1X c #FAE6E5",
"2X c #FBE7E5",
"3X c #FFE7E2",
"4X c #FEE7E5",
"5X c #F8E8E5",
"6X c #F9EAE6",
"7X c #FFE9E5",
"8X c #FFEBE5",
"9X c #F9EAE8",
"0X c #FAE9EA",
"qX c #F8ECE9",
"wX c #FFECE9",
/* pixels */
"l.l.l.l.l.l.l.l.l.l.l.l.l.l.l.l.l.l.l.l.c.l.l.l.l.l.l.l.l.l.l.l.",
"l.l.l.l.l.l.l.l.l.l.l.l.l.l.l.l.l.l.l.l.z.c.l.l.l.l.l.l.l.l.l.l.",
"l.l.l.l.l.l.l.l.l.l.l.l.l.l.l.l.x.x.l.l.c.z.l.c.l.l.l.l.l.l.l.l.",
"l.l.l.l.l.l.l.l.l.l.l.l.l.l.l.l.{.-X-XoXz.l.l.z.l.l.l.l.l.l.l.l.",
"l.l.l.l.l.l.l.l.l.l.l.l.k.k.l.OX$.] [ { s.x.z.c.l.l.l.l.l.l.l.l.",
"l.l.l.l.l.l.l.l.l.l.l.l.c.k.R.w.k < , ,.K.c.z.z.l.l.l.l.l.l.l.l.",
"l.l.l.l.l.l.l.l.l.l.l.c.l.l.+XY u r ..+Xx.k.x.z.l.l.l.l.l.l.l.l.",
"l.l.l.l.l.l.l.l.l.l.l.k.k.R.e.l < ^ W.c.c.c.c.j.l.l.l.l.l.l.l.l.",
"l.l.l.l.l.l.l.l.l.l.l.l.l.OXU $ A d.F.l.l.l.l.l.l.l.z.c.z.l.l.l.",
"l.l.l.l.l.c.l.l.l.l.l.l.x.f.P ! 2.!.l.l.l.l.l.l.l.l.c.z.c.l.l.l.",
"l.l.l.l.z.z.z.z.z.z.z.].].|.2X2XD.z.l.l.D.].].F.l.c.z.c.l.l.l.l.",
"l.l.l.l.z.9XwX4Xz.@XG.-.=.*.'.!.z.z.{.8X:.=.%.r.2Xz.c.z.l.l.l.l.",
"l.l.k.k./.J V Q >X@.f < < < N X.2X&X6.H < < < u /  Xz.l.l.l.l.l.",
"l.l.k.Y.).F f S P < % % % f s x >.;.+ < $ % u b < ) >Xl.l.l.l.l.",
"l.l.l.l.).G b b . S 3.2X^.T r b f % N  .2X2X5.p j x a.F.l.l.l.l.",
"l.l.l.l.).G b z } -X!.c.R.~.K b w ~ _.oXz.z.qX#.f < ..!.l.l.l.l.",
"z.j.c.x.).G f E .XZ.l.l.l.%XI u N 4.K.z.l.l.{.7.< w ' :Xz.l.l.l.",
"z.c.x.x.).G f R U.z.l.l.l..X+.w N 1.D.z.l.l.R.9., w _ :Xz.c.l.l.",
"z.z.x.x.).G f R U.z.l.l.l..XO.u N 1.D.Z.l.l.R.q.: w _ :Xl.l.l.l.",
"z.c.x.Y.).G f R U.z.l.l.l..XO.u N 2.D.z.l.l.x.q.: w _ :Xl.l.l.l.",
"c.l.l.l.(.G f R U.z.c.z.c..XO.w N 1.!.z.z.z.x.q.: w _ :Xl.l.l.l.",
"l.l.l.l.(.G f R U.Z.z.c.k..XO.u N 1.D.z.z.c.R.0.: s ` :Xl.l.l.l.",
"x.x.l.Y.(.G j R U.z.c.z.c..XO.u N 1.D.z.c.l.R.0.: w _ :Xl.l.l.l.",
"x.k.k.k.(.G s R U.c.z.c.k..XO.u N 1.D.Z.l.l.R.0.: w _ +Xl.l.l.l.",
"c.j.k.k.).G f R U.M.c.l.l..XO.w N <.F.x.l.l.R.0.: w ` :Xz.c.z.c.",
"z.z.k.Y.).G f R U.c.l.l.l..XO.u N 4.F.x.l.l.x.0.: w ` :Xc.z.c.z.",
"z.z.c.l.(.G f R U.M.l.l.l..XO.u N 1.F.x.l.l.R.0.: s _ :Xz.c.z.c.",
"z.c.l.l.(.D o Z U.x.l.l.l..Xo.X : <.F.l.l.l.R.9.    ( :Xc.z.c.z.",
"l.l.l.l.z.j.y.i.z.z.c.l.z.z.j.y.y.z.z.z.l.l.l.c.y.y.h.z.l.l.l.l.",
"l.l.l.l.z.x.F.x.l.l.l.l.c.z.z.z.Z.z.z.c.l.l.l.l.z.F.c.l.l.l.l.l.",
"l.l.l.l.l.l.l.l.l.l.l.c.z.c.l.l.l.l.c.z.l.l.l.l.z.z.l.l.l.l.l.l.",
"l.l.l.l.l.l.l.l.l.l.l.z.c.z.l.l.l.l.l.c.l.l.l.l.l.c.l.l.l.l.l.l."
};
